<svg id="visual" viewBox="0 0 900 600" width="900" height="600" xmlns="http://www.w3.org/2000/svg" xmlns:xlink="http://www.w3.org/1999/xlink" version="1.1"><rect x="0" y="0" width="900" height="600" fill="#002233"></rect><path d="M0 452L129 452L129 420L257 420L257 398L386 398L386 443L514 443L514 496L643 496L643 478L771 478L771 443L900 443L900 449L900 601L900 601L771 601L771 601L643 601L643 601L514 601L514 601L386 601L386 601L257 601L257 601L129 601L129 601L0 601Z" fill="#0066FF" stroke-linecap="square" stroke-linejoin="miter"></path></svg>